<?xml version="1.0" encoding="UTF-8"?>
<svg id="Layer_1" xmlns="http://www.w3.org/2000/svg" version="1.1" viewBox="0 0 399.2 138.2">
  <!-- Generator: Adobe Illustrator 30.2.1, SVG Export Plug-In . SVG Version: 2.1.1 Build 1)  -->
  <defs>
    <style>
      .st0 {
        fill: #232323;
      }

      .st1 {
        fill: #337367;
      }

      .st2 {
        fill: #f5df05;
      }

      .st3 {
        fill: #fff;
      }

      .st4 {
        fill: #bd2035;
      }
    </style>
  </defs>
  <g>
    <path class="st3" d="M133.17,60.36h0c2.64-4.27,14.33-3.56,13.31-.41-.61,2.03-6.71,14.33-14.63,16.26-4.37,1.12-9.86-.3-6.3-3.25.81-.71,2.24-2.95,2.95-4.78,1.22-3.56-.51-4.88-4.37-2.13-10.77,7.82-16.05,27.94,4.06,21.14,6.1-2.13,18.49-8.23,25.81-17.58,2.13-2.64,6.1-2.13,3.96,1.73-12.7,22.86-40.03,29.67-49.08,24.29-13.41-8.13-6.4-29.37,5.89-35.26,6.5-3.05,13.82-2.74,18.39,0Z"/>
    <path class="st3" d="M160.1,79.26c-5.18,10.77,11.69,16.05,32.01-9.45,2.13-2.64,6.4-2.03,3.96,1.73-14.94,23.57-34.55,29.47-43.59,24.08-13.41-8.13-3.25-29.37,9.04-35.26,12.29-5.89,27.64.91,21.44,12.19-6,10.87-19.51,13.21-22.86,6.81v-.1ZM161.73,76.11c5.18,2.13,10.67-2.95,13.01-7.11,1.93-3.45.61-6.2-3.86-2.95-1.83,1.32-6.5,5.79-9.15,10.06Z"/>
  </g>
  <g>
    <path class="st3" d="M100.76,37.8c5.69-.61,8.33,4.27,6.6,9.35-1.63,4.57-7.32,8.84-12.29,7.21-8.54-2.74-2.74-15.65,5.69-16.56Z"/>
    <path class="st1" d="M74.85,102.53c-17.27,1.52-34.85,3.45-51.82,7.21-6.81,1.52-17.17,2.74-17.27,11.79,0,2.44,1.42,6.1,4.37,5.59,1.63-.3,4.78-2.03,6.6-2.64,8.94-3.05,18.8-5.18,28.04-6.91,12.29-2.34,22.7-5.44,35.2-6.05,1.63,1.63,5.44,4.32,7.27,5.64,19.61,14.02,62.08,20.22,84.34,11.18,10.67-4.37,16.16-13.21,3.66-20.12-7.72-4.27-18.09-5.89-26.83-6.71-17.38-1.63-35.36-1.22-52.74-.51-1.12,0-6.91.71-7.42.41M170.47,118.99c-6.91,4.67-31.09,2.74-39.73,1.83-8.54-.91-25.91-3.45-32.62-8.64-.2-.2-.95-.46-.3-.61,2.24-.1,4.57-.1,6.91-.2,13.92-.61,28.45-.51,42.27.51,5.69.41,11.58.71,17.17,2.03,1.42.3,5.69,1.52,6.6,2.54s.71,1.93-.3,2.64v-.1Z"/>
    <path class="st3" d="M175.24,108.22h-.1c-7.72-4.27-19.51-2.44-28.25-3.25-17.38-1.63-33.94-4.67-51.31-3.96-1.12,0-6.91.71-7.42.41-6.2-14.12,3.66-28.25,10.06-40.34-.71-3.96-6.81-4.27-9.96-3.45-4.57,1.22-6.1,6.2-8.54,9.75-1.42,2.95-3.45,7.82-5.69,15.55-1.12,5.49-1.22,11.08,0,16.56.2.81.61,1.73.81,2.44,0,.3.2.41,0,.61-17.27,1.52-34.85,3.45-51.82,7.21-6.81,1.52-17.07,3.15-17.17,12.19,0,2.44,1.32,5.69,4.27,5.18,1.63-.3,4.78-2.03,6.6-2.64,8.94-3.05,18.8-5.18,28.04-6.91,12.29-2.34,23.12-9.55,35.62-10.16"/>
  </g>
  <path class="st4" d="M174.33,110.86l-7.32-2.85-12.29-3.35-18.59-1.93h-12.5l-10.36.71h-15.44l-1.32,2.24c63.91-3.66,75.19,7.72,78.44,10.77s3.66,8.03-24.29,15.85c0,0,10.57,0,23.07-5.08l4.27-2.74,1.83-6.4-5.39-7.32-.1.1Z"/>
  <path class="st4" d="M174.12,122.04s16.56-24.29-101.41-8.43l-37.8,6.1,33.02-10.26,42.07-5.79h23.47l13.41,1.32,16.77,3.96,8.54,4.88,3.35,2.54,1.12,2.95-.41,2.54-1.93.91-.3-.71h.1Z"/>
  <path class="st2" d="M170.47,106.59l-24.29-4.06-33.13-1.63-42.58,4.27-25.3,4.78-39.32,13.31s.61,4.57,4.17,3.96c0,0,142.15-37.8,165.93-11.28,3.35,3.35,6.71,11.28-19.1,16.05,0,0,24.85-1.24,25.5-15.34l-11.89-9.96v-.1Z"/>
  <path class="st0" d="M182.39,116.46h0s.03-.89-.68-2.31c-.41-.81-1.08-1.78-1.89-2.6-3.79-3.91-10.57-7.4-27.23-9.64,0,0-27.21-5.07-94.39,2.08,0,0-49.17,4.07-51.51,13.22,0,0-1.91,4.43-.42,7.52,0,0,134.43-40.39,170.51-12.15,3.76,4.27,4.14,6.2,3.43,10.16,0,0,2.67-3.2,2.2-6.29h0Z"/>
  <path class="st0" d="M167.03,107.32s12.48,4.49,13.6,11.91l.1-4.41-5.28-5.69-8.42-1.81h0Z"/>
  <path class="st4" d="M8.7,127.12s121.46-39.36,164.75-13.45l-7.35-2.81-3.96-1.63-6.6-1.52-6.91-.51-10.77-.61-16.66.61-4.37,1.12-23.57,2.03-14.84,2.24s-20.12,3.45-27.03,4.88c-9.55,1.93-26.77,6.21-37.85,8.85,0,0-4.1,1.51-4.96.85l.13-.04Z"/>
  <path class="st4" d="M176.16,118.28l-1.93-1.63s3.56,5.59-10.57,10.36h0c-.71.2-1.42.51-2.24.71-9.65,2.54-26.01,1.73-29.06,1.52h-.51c-31.4-2.24-71.99-22.68-49.33-66.78,0,0-27.53,40.02,11.64,59.67,0,0,18.8,8.03,40.64,10.16h-.2s1.73.2,4.47.3c2.85.2,5.59.2,8.43.1,3.05,0,6.4-.2,9.75-.61l6.81-1.52,8.64-4.17,3.66-4.47-.2-3.56v-.1Z"/>
  <path class="st2" d="M171.58,128.44s-29.87,13.92-78.34-6.4c-7.42-3.05-18.49-13.51-19.71-26.22,0,0,.81,29.87,63,36.17,8.74.91,18.29,1.42,34.95-4.06v.51h.1Z"/>
  <path class="st2" d="M131.65,131.39s29.98,2.13,42.27-4.88l-.81.81-2.64,1.32-5.18,1.52-4.98,1.12-9.96,1.32h-5.49l-13.21-.81v-.41h0Z"/>
  <g>
    <path class="st3" d="M239.26,73.87c-11.89.41-20.02-2.95-15.34-16.05,3.05-8.54,10.57-18.19,15.34-22.86,6.81-6.81,24.89-3.96,17.78,2.44-10.67,9.55-15.14,15.85-17.78,23.68,13.62,0,28.45-2.64,40.14-7.32,25.3-10.16,27.94-28.76-4.47-31.7-25.61-2.34-65.64,6.2-77.73,27.23-3.35,6-3.35,13.41,11.89,16.56,3.66.71-1.73,12.8-12.29,8.74-14.84-5.69-14.53-20.22-9.86-29.57,14.33-28.35,56.29-37.8,85.56-35.77,45.83,3.25,48.06,42.17,8.23,56.7,13.41,4.47,14.12,17.99,4.47,26.62-13.62,12.09-55.28,13.11-68.49,4.27-9.15-6.1-.91-20.53,2.85-15.14,5.69,8.33,29.87,10.87,46.44,7.01,20.73-4.98,17.99-17.58-4.37-16.26-7.21.41-16.56,1.22-22.46,1.32l.1.1Z"/>
    <path class="st3" d="M313.03,77.23c-5.28,10.87,11.79,16.16,32.31-9.55,2.13-2.64,6.4-2.03,3.96,1.73-15.04,23.78-34.95,29.77-44,24.29-13.51-8.23-3.25-29.57,9.15-35.56,12.4-5.89,27.94.91,21.64,12.29-6.1,10.97-19.71,13.31-23.07,6.81h0ZM314.75,73.98c5.18,2.24,10.77-2.95,13.21-7.21,1.93-3.56.71-6.3-3.96-2.95-1.83,1.32-6.6,5.89-9.25,10.16Z"/>
    <path class="st3" d="M368.1,87.79c-12.6,10.16-29.57,5.08-26.83-10.77.51-3.15,1.63-7.01,3.15-11.28-.61.1-1.12.3-1.63.3-5.08,1.12-3.45-11.18,1.22-11.99,1.63-.3,3.56-.51,5.69-.71,7.62-16.05,19.1-33.23,29.16-40.14,11.18-7.72,22.46-2.74,15.95,10.26-4.67,9.25-15.04,21.44-24.49,30.48,1.42.41,2.74.91,3.96,1.63,3.45,2.03,3.35,6.5,2.34,8.74-.51,1.02-1.12,1.22-1.63,1.12-4.88-.91-10.67-1.32-16.46-1.12-3.86,6.2-8.94,25.2,6.81,16.97,5.49-2.95,14.12-11.89,15.34-13.21,2.54-2.74,5.08-2.74,2.44,2.34-2.24,4.37-9.75,13.41-14.73,17.38h-.3ZM363.83,52.13c10.26-10.36,18.39-20.02,22.86-27.33,2.54-4.17,2.03-5.69-2.03-1.42-6.6,7.01-19.81,26.72-20.93,28.76h.1Z"/>
  </g>
  <g>
    <path class="st3" d="M189.16,127.32v-3.96h3.96v3.96h-3.96Z"/>
    <path class="st3" d="M206.03,127.63c-5.08,0-8.84-3.86-8.84-8.84h0c0-4.98,3.66-8.94,8.94-8.94s5.18,1.12,6.81,2.64l-2.44,2.74c-1.32-1.22-2.64-1.93-4.37-1.93-2.95,0-4.98,2.44-4.98,5.39h0c0,2.95,2.03,5.49,4.98,5.49s3.15-.81,4.47-2.03l2.44,2.44c-1.73,1.93-3.76,3.05-7.01,3.05Z"/>
    <path class="st3" d="M226.25,127.63c-5.28,0-9.15-3.96-9.15-8.84h0c0-4.98,3.86-8.94,9.15-8.94s9.15,3.96,9.15,8.84h0c0,4.98-3.86,8.94-9.15,8.94ZM231.43,118.79c0-2.95-2.13-5.39-5.18-5.39s-5.18,2.44-5.18,5.39h0c0,2.95,2.13,5.49,5.18,5.49s5.18-2.44,5.18-5.39h0v-.1Z"/>
    <path class="st3" d="M239.46,127.32v-3.96h3.96v3.96h-3.96Z"/>
    <path class="st3" d="M262.73,127.32v-11.18l-4.88,7.32h0l-4.78-7.32v11.18h-3.66v-17.17h4.06l4.47,7.32,4.47-7.32h4.06v17.17h-3.76Z"/>
    <path class="st3" d="M272.38,127.32v-2.85l9.45-10.97h-9.15v-3.35h14.02v2.85l-9.45,10.97h9.45v3.35h-14.33,0Z"/>
  </g>
  <path class="st3" d="M93.04,16.46c-1.52-5.39-4.98-8.54-10.57-9.65-5.18-1.12-11.58.2-19,3.96-7.52,3.86-14.94,9.65-22.25,17.68,1.42-5.18,2.54-11.69,1.32-15.75-1.12-3.66-2.13-6.5-7.01-7.82-4.37-1.22-8.33-.41-9.86,1.12h0c-1.32,1.12-2.13,2.95-2.03,4.98s.71,3.56,1.73,4.78c.91,1.12,1.52,1.02,2.54.61,7.52-1.63,4.17,4.78,3.35,9.35-1.42,7.72-6.4,17.68-12.8,29.06-6.3,11.38-11.79,20.32-16.36,26.93-1.02,1.93-.3,3.56,2.13,4.78,2.44,1.22,5.39,1.63,8.84,1.22,3.45-.41,5.79-1.83,7.11-4.27,1.22-2.24,2.95-5.69,5.28-10.26,5.28-10.16,9.55-18.09,13.01-23.88,3.35-5.79,7.52-11.28,12.29-16.36,4.88-5.18,9.65-9.25,14.33-12.29s8.33-4.67,11.18-4.67,3.96,1.83,3.56,5.49c-.51,3.66-2.85,9.25-7.32,16.66-3.15,5.39-6.4,11.18-9.75,17.48-3.35,6.3-6.3,12.6-8.84,18.8s-3.86,11.18-3.96,14.94c-.1,3.45.91,6.3,3.15,8.33,2.24,2.13,4.47,3.15,6.81,3.25,2.34,0,3.45-.81,3.45-2.54-.51-4.78.91-11.18,4.37-19s8.23-17.38,14.43-28.76c3.35-6.1,5.49-10.36,6.71-12.7,4.27-8.94,5.69-16.05,4.27-21.44h-.1Z"/>
  <path class="st2" d="M169.45,129.57s-33.74,13.11-76.21-7.21c-7.42-3.05-18.49-13.51-19.71-26.22,0,0,.81,29.87,63,36.17,8.74.91,20.6.69,37.26-4.8l-3.02,1.45-1.32.61h0Z"/>
</svg>